<svg xmlns="http://www.w3.org/2000/svg" fill="none" viewBox="-0.5 -0.5 16 16" id="Home-Outline--Streamline-Ionic-Outline" height="16" width="16">
    <desc>
        Home Outline Streamline Icon: https://streamlinehq.com
    </desc>
    <path stroke="#000000" stroke-linecap="round" stroke-linejoin="round" d="M2.343903125 6.211250000000001v6.9140625c0 0.12431249999999999 0.049384375 0.24353125 0.13729375 0.33146875 0.087909375 0.08787500000000001 0.207134375 0.13728125000000002 0.33145625 0.13728125000000002h2.812503125v-3.984375c0 -0.18646875000000002 0.07409375 -0.36534375 0.2059375 -0.4971875 0.13184375 -0.13184375 0.31071875 -0.2059375 0.4971875 -0.2059375h2.34375c0.18646875000000002 0 0.36534375 0.07409375 0.4971875 0.2059375 0.13184375 0.13184375 0.2059375 0.31071875 0.2059375 0.4971875v3.984375h2.8125c0.12431249999999999 0 0.2435625 -0.04940625 0.33146875 -0.13728125000000002 0.08790624999999999 -0.0879375 0.13728125000000002 -0.20715625000000001 0.13728125000000002 -0.33146875V6.211250000000001" stroke-width="1"></path>
    <path stroke="#000000" stroke-linecap="round" stroke-linejoin="round" d="M14.062593750000001 7.500343750000001 7.819125 1.523765625c-0.14646875 -0.1546875 -0.48896875 -0.156446875 -0.63809375 0L0.9375749999999999 7.500343750000001" stroke-width="1"></path>
    <path stroke="#000000" stroke-linecap="round" stroke-linejoin="round" d="M11.7190625 5.24459375V1.87545625h-1.40625v2.02148125" stroke-width="1"></path>
</svg>
