<?xml version="1.0" encoding="iso-8859-1"?>
<!-- Uploaded to: SVG Repo, www.svgrepo.com, Generator: SVG Repo Mixer Tools -->
<svg fill="#496D4A" height="800px" width="800px" version="1.1" id="Layer_1" xmlns="http://www.w3.org/2000/svg" xmlns:xlink="http://www.w3.org/1999/xlink"
	 viewBox="0 0 512.001 512.001" xml:space="preserve">
<g>
	<g>
		<path d="M499.906,441.417L363.016,304.526c-3.984-3.982-10.44-3.982-14.425,0l-14.289,14.289l-33.497-33.497
			c26.685-30.292,42.899-70.017,42.899-113.465C343.705,77.093,266.613,0,171.853,0S0,77.093,0,171.853
			s77.093,171.853,171.853,171.853c43.988,0,84.162-16.619,114.591-43.9l33.433,33.434l-15.351,15.351
			c-3.983,3.983-3.983,10.441,0,14.425l136.891,136.891C449.48,507.969,460.07,512,470.661,512s21.184-4.031,29.246-12.094
			C516.032,483.78,516.032,457.542,499.906,441.417z M162.961,198.743l-52.487-52.488c-3.983-3.981-10.44-3.982-14.425,0
			c-3.983,3.983-3.983,10.441,0,14.425l52.488,52.488h-2.929c-35.467,0-64.323-28.856-64.323-64.323v-17.354h17.354
			c35.468,0,64.323,28.856,64.323,64.323V198.743z M224.078,172.45c-3.983-3.982-10.441-3.982-14.425,0l-26.293,26.294v-2.928
			c0-35.467,28.855-64.323,64.323-64.323h17.354v17.354c0,35.467-28.856,64.323-64.323,64.323h-2.929l26.294-26.294
			C228.061,182.891,228.061,176.433,224.078,172.45z M183.36,322.872v-89.306h17.354c46.716,0,84.722-38.007,84.722-84.722v-27.553
			c0-5.632-4.567-10.2-10.2-10.2h-27.553c-32.149,0-60.171,18-74.522,44.452c-14.351-26.451-42.373-44.452-74.522-44.452H71.085
			c-5.633,0-10.2,4.567-10.2,10.2v27.553c0,46.716,38.006,84.722,84.722,84.722h17.354v89.472
			c-79.388-4.619-142.562-70.66-142.562-151.185c0-83.511,67.942-151.454,151.454-151.454s151.454,67.942,151.454,151.453
			C323.306,251.494,261.516,316.973,183.36,322.872z M485.482,485.482c-8.173,8.174-21.471,8.173-29.642,0L326.162,355.804
			l29.641-29.641l129.679,129.679C493.653,464.013,493.653,477.31,485.482,485.482z"/>
	</g>
</g>
<g>
	<g>
		<path d="M248.235,148.741c-3.983-3.982-10.441-3.982-14.425,0l-2.8,2.8c-3.983,3.983-3.983,10.441,0,14.425
			c1.992,1.991,4.602,2.987,7.213,2.987c2.61,0,5.221-0.996,7.212-2.987l2.8-2.8C252.217,159.183,252.217,152.725,248.235,148.741z"
			/>
	</g>
</g>
</svg>
